<?xml version="1.0" standalone="no"?>
<!DOCTYPE svg PUBLIC "-//W3C//DTD SVG 20010904//EN"
 "http://www.w3.org/TR/2001/REC-SVG-20010904/DTD/svg10.dtd">
<svg version="1.0" xmlns="http://www.w3.org/2000/svg"
 width="1024.000000pt" height="1024.000000pt" viewBox="0 0 1024.000000 1024.000000"
 preserveAspectRatio="xMidYMid meet">

<g transform="translate(0.000000,1024.000000) scale(0.100000,-0.100000)"
fill="#000000" stroke="none">
<path d="M4575 8180 c-268 -30 -584 -146 -828 -306 -115 -76 -188 -145 -274
-261 -34 -45 -64 -79 -68 -75 -4 4 -6 3 -4 -3 4 -17 -23 -65 -34 -58 -6 3 -7
1 -4 -4 8 -13 -47 -78 -65 -78 -7 -1 -12 -6 -10 -13 1 -7 -9 -18 -23 -24 -14
-6 -25 -15 -25 -20 0 -14 10 -9 58 30 34 27 44 32 38 17 -129 -337 -152 -694
-66 -1038 28 -115 132 -367 199 -487 l60 -105 -28 -30 c-15 -16 -108 -115
-207 -220 -100 -104 -190 -201 -202 -215 -122 -146 -171 -208 -224 -282 -34
-48 -65 -85 -70 -82 -16 10 -138 193 -176 264 -57 105 -122 319 -149 485 -5
32 -7 35 -12 18 -5 -19 -11 -21 -51 -16 -25 3 -60 6 -77 6 -23 0 -33 5 -34 16
0 12 -3 10 -8 -4 -8 -19 -9 -18 -14 5 -13 57 6 -165 24 -280 38 -253 89 -367
264 -595 63 -82 115 -152 115 -156 0 -3 45 -52 101 -108 l101 -103 33 78 c75
183 88 210 122 263 62 97 117 162 257 304 75 76 136 144 136 150 0 7 42 57 93
112 50 56 109 120 130 144 21 23 40 41 41 39 3 -4 168 -196 214 -250 l34 -38
-144 -168 c-203 -236 -218 -255 -292 -372 -139 -218 -209 -380 -254 -585 -23
-108 -26 -141 -27 -330 0 -196 2 -218 28 -333 16 -68 37 -149 48 -179 10 -31
17 -58 15 -60 -7 -7 -121 93 -167 148 -136 162 -198 277 -273 514 -28 87 -44
115 -117 215 -46 64 -95 133 -109 153 -14 20 -28 37 -32 37 -20 0 5 -329 32
-434 35 -138 132 -313 268 -483 146 -182 308 -332 492 -454 406 -270 427 -283
539 -339 176 -88 377 -152 566 -181 111 -17 432 -17 522 -1 59 11 86 11 150 1
123 -20 424 -15 563 10 239 42 535 164 740 305 52 35 152 101 221 145 257 164
459 345 615 554 154 206 224 358 249 547 18 134 19 334 2 306 -7 -10 -58 -83
-114 -162 -92 -130 -105 -154 -138 -256 -51 -154 -121 -298 -193 -393 -57 -78
-218 -242 -227 -233 -2 2 4 33 15 69 55 179 64 252 64 489 0 208 -2 234 -26
340 -48 207 -122 382 -236 559 -23 35 -42 69 -42 74 0 5 40 51 88 101 269 280
327 344 425 474 217 286 308 447 336 592 6 30 19 98 30 150 49 238 49 506 1
680 -38 133 -168 379 -193 363 -6 -3 -7 -1 -4 4 8 12 -80 129 -94 125 -5 -1
-8 3 -7 10 2 7 -3 12 -11 13 -8 0 -15 9 -17 20 -4 30 -230 235 -252 228 -6 -3
-10 -9 -6 -14 3 -5 0 -9 -5 -9 -6 0 -11 9 -11 21 0 13 4 18 12 13 7 -4 8 -3 4
4 -13 21 -96 73 -106 67 -6 -4 -9 -1 -8 5 3 11 -178 129 -229 150 -12 5 -58
36 -103 69 -221 164 -518 286 -818 336 -84 14 -142 16 -310 12 -114 -3 -227
-11 -252 -17 -35 -9 -69 -8 -160 4 -143 19 -323 26 -415 16z m492 -46 c-3 -3
-12 -4 -19 -1 -8 3 -5 6 6 6 11 1 17 -2 13 -5z m43 2 c0 -2 -7 -7 -16 -10 -8
-3 -12 -2 -9 4 6 10 25 14 25 6z m-83 -12 c-3 -3 -12 -4 -19 -1 -8 3 -5 6 6 6
11 1 17 -2 13 -5z m290 -50 c46 -15 49 -18 45 -44 -5 -38 -39 -66 -87 -73
l-40 -6 3 69 c4 79 4 78 79 54z m140 -80 c-3 -3 -12 -4 -19 -1 -8 3 -5 6 6 6
11 1 17 -2 13 -5z m72 2 c-2 -2 -17 -6 -34 -10 -22 -5 -26 -4 -15 4 14 9 59
15 49 6z m-568 -72 c31 -9 62 -13 68 -10 6 4 11 4 11 -1 1 -26 17 -33 49 -22
25 9 30 14 19 21 -10 8 -10 9 3 5 8 -3 33 -1 55 4 21 4 62 13 89 19 28 6 73
13 100 15 28 3 84 11 126 17 126 19 369 -19 532 -83 199 -78 460 -286 569
-454 49 -76 107 -199 113 -243 2 -15 17 -81 32 -147 25 -106 28 -138 27 -275
-2 -180 -16 -254 -90 -456 -45 -125 -125 -295 -162 -342 l-19 -24 -44 54 c-63
77 -249 280 -277 302 -19 15 -35 18 -89 13 -37 -3 -69 -10 -73 -18 -5 -7 -33
-14 -67 -15 -32 -1 -62 -3 -66 -3 -21 -2 8 -39 149 -187 184 -194 324 -347
324 -356 0 -6 -92 -116 -193 -231 -51 -57 -62 -65 -76 -55 -14 11 -14 11 -3
-3 10 -14 1 -28 -67 -100 l-79 -84 -23 20 -24 20 22 -26 23 -25 -406 -427
c-399 -420 -407 -427 -427 -410 -11 10 -153 157 -316 328 -163 170 -338 353
-389 406 l-93 97 108 113 c343 362 530 557 632 659 143 141 251 260 251 276 0
20 236 259 355 359 l115 97 -81 89 c-100 110 -277 275 -291 271 -5 -1 -7 1 -4
6 3 5 -10 24 -29 42 -19 18 -32 37 -29 42 3 5 42 36 87 69 96 72 246 157 340
194 37 15 67 31 67 35 0 4 -18 22 -41 41 -22 19 -52 44 -67 57 -15 12 -42 32
-60 44 l-34 21 -131 -67 c-135 -69 -253 -145 -419 -273 -102 -77 -425 -383
-532 -502 l-66 -73 36 -24 c20 -14 68 -52 107 -86 l71 -61 86 93 c127 140 334
350 346 350 5 0 65 -56 133 -124 l125 -125 -100 -108 c-54 -59 -122 -135 -149
-168 -66 -79 -278 -309 -429 -465 -67 -69 -166 -172 -221 -230 -54 -58 -154
-162 -221 -231 l-122 -127 -39 42 c-53 55 -153 172 -187 219 l-28 37 45 53
c25 28 158 171 295 317 210 221 249 267 239 280 -10 13 -10 13 4 2 13 -10 18
-10 28 1 6 8 7 18 3 22 -4 5 -2 5 4 2 7 -4 17 0 24 8 10 12 6 13 -23 8 -22 -3
-45 1 -66 12 -22 11 -43 14 -63 10 -17 -4 -33 -3 -37 1 -3 5 -21 14 -38 21
-28 10 -35 9 -44 -5 -9 -14 -10 -14 -6 6 3 12 4 22 3 22 -3 0 -214 -215 -332
-338 -49 -52 -109 -121 -133 -154 l-45 -60 -17 24 c-66 86 -179 355 -224 529
-34 136 -46 361 -23 435 9 27 21 79 28 116 7 37 16 66 20 63 5 -3 6 5 3 16 -4
15 0 27 13 37 16 13 16 14 2 9 -23 -8 -23 -2 8 74 84 207 172 314 404 494 158
122 404 211 645 233 82 7 241 -16 376 -54z m119 -14 c0 -5 -5 -10 -11 -10 -5
0 -7 5 -4 10 3 6 8 10 11 10 2 0 4 -4 4 -10z m1660 -225 c0 -2 -7 -1 -17 2
-12 5 -14 3 -8 -7 5 -9 4 -11 -4 -6 -6 4 -8 12 -5 18 5 7 2 9 -8 6 -8 -4 -15
0 -15 7 0 11 6 11 29 -1 15 -8 28 -17 28 -19z m40 -95 c0 -5 -2 -10 -4 -10 -3
0 -8 5 -11 10 -3 6 -1 10 4 10 6 0 11 -4 11 -10z m250 -122 c0 -4 11 -10 25
-14 14 -3 25 -10 25 -15 0 -14 -26 -10 -40 6 -17 21 -37 19 -52 -5 -18 -28
-28 -25 -28 10 0 23 5 31 25 36 14 3 22 11 19 18 -3 6 2 2 10 -8 9 -11 16 -23
16 -28z m-153 -50 c-3 -8 -6 -5 -6 6 -1 11 2 17 5 13 3 -3 4 -12 1 -19z m69
-1 c4 -4 -5 -7 -20 -7 -15 0 -25 4 -22 9 7 10 31 9 42 -2z m183 -21 c9 -10 8
-15 -2 -19 -8 -3 -13 3 -13 14 0 23 0 23 15 5z m-186 -39 c7 3 9 3 5 -2 -10
-10 49 -58 62 -50 6 4 9 1 8 -7 -2 -7 3 -12 10 -10 6 1 11 -4 10 -10 -2 -7 3
-12 10 -10 6 1 11 -3 10 -10 -2 -7 2 -12 7 -13 6 0 19 -6 30 -14 15 -9 16 -11
3 -7 -10 3 -18 3 -18 1 0 -3 25 -37 56 -77 93 -121 196 -356 224 -515 16 -88
8 -297 -14 -400 -30 -141 -110 -359 -172 -470 -49 -88 -168 -246 -282 -372
-53 -60 -128 -144 -166 -187 -152 -173 -214 -235 -223 -220 -4 8 -59 71 -120
140 -62 68 -113 128 -113 131 0 8 166 201 230 266 93 96 129 138 145 168 8 17
20 31 26 31 6 0 9 6 6 14 -3 8 14 46 38 84 131 210 236 502 265 732 20 164 9
392 -26 570 -13 61 -51 188 -82 270 -3 8 9 3 27 -13 18 -15 38 -24 44 -20z
m237 -18 c0 -5 -4 -9 -8 -9 -5 0 -9 7 -9 15 0 8 4 12 9 9 4 -3 8 -9 8 -15z
m-1890 -173 c0 -2 -8 -10 -17 -17 -16 -13 -17 -12 -4 4 13 16 21 21 21 13z
m-140 -157 c0 -6 -4 -7 -10 -4 -5 3 -10 11 -10 16 0 6 5 7 10 4 6 -3 10 -11
10 -16z m-813 -2176 c115 -122 293 -309 396 -417 l189 -195 -92 -99 c-51 -55
-111 -115 -135 -135 l-42 -36 -28 29 c-16 16 -32 27 -37 24 -5 -3 -7 -1 -6 4
4 12 -47 68 -321 352 -253 262 -359 375 -379 402 -11 14 -4 26 45 85 95 114
188 213 195 210 4 -1 101 -102 215 -224z m1855 120 c121 -137 148 -169 148
-178 0 -5 -55 -65 -122 -134 -471 -486 -664 -681 -674 -681 -6 0 -66 58 -133
130 l-122 130 187 197 c104 109 234 245 290 303 55 58 150 158 209 223 60 64
112 117 115 117 4 0 50 -48 102 -107z m-2448 -412 c15 -17 16 -38 11 -207 -3
-104 -8 -202 -11 -219 -4 -23 -3 -26 5 -15 9 12 11 11 11 -7 0 -13 -4 -23 -10
-23 -5 0 -9 -17 -9 -37 l2 -38 6 35 c3 19 6 -21 6 -90 1 -116 21 -283 34 -275
3 2 6 -17 7 -41 l1 -44 -41 -1 c-23 -1 -50 -1 -61 0 -18 1 -18 0 3 -9 14 -6
22 -18 22 -33 0 -13 4 -27 10 -33 5 -5 12 -30 14 -54 2 -25 2 -37 -1 -27 -6
22 -25 22 -21 0 2 -13 -6 -19 -32 -23 -29 -5 -23 -7 35 -13 39 -4 90 -7 115
-7 44 0 46 -1 67 -47 28 -61 122 -212 176 -281 33 -44 38 -55 26 -64 -11 -8
-11 -9 3 -5 11 4 35 -15 77 -61 92 -101 89 -94 44 -88 -21 3 -29 2 -18 -2 12
-4 -16 -9 -70 -13 -89 -5 -88 -5 39 -7 l130 -2 57 -45 c50 -39 56 -42 53 -22
-4 16 -2 15 8 -6 13 -28 150 -127 176 -127 6 0 12 -4 12 -10 0 -13 1 -13 -137
10 -145 25 -249 58 -370 118 -93 46 -190 117 -185 134 1 5 -2 7 -7 4 -10 -6
-114 75 -141 110 -13 17 -13 18 0 8 9 -6 28 -7 45 -3 l30 7 -31 1 c-80 3 -134
52 -225 203 -40 66 -89 182 -89 210 0 4 30 5 68 3 37 -2 59 -2 50 1 -13 4 -17
21 -20 86 -3 76 5 105 22 78 4 -7 13 -9 20 -5 9 6 9 3 1 -13 -15 -28 -14 -32
9 -32 13 0 20 7 20 19 0 29 -29 53 -57 48 -12 -2 -23 -1 -23 3 0 4 -17 11 -37
15 -21 4 -53 13 -70 20 l-33 14 0 134 c0 201 22 309 108 517 54 134 130 270
150 270 5 0 17 -8 26 -19z m2813 -74 c72 -129 157 -352 178 -467 21 -120 26
-357 7 -369 -8 -5 -38 -14 -68 -21 -61 -15 -61 -15 -67 -143 l-3 -69 54 7 c53
7 54 6 47 -17 -21 -68 -69 -167 -118 -241 -59 -88 -182 -212 -199 -200 -7 3
-8 1 -4 -5 4 -6 -19 -31 -55 -59 -33 -26 -79 -63 -102 -81 -117 -95 -371 -183
-594 -206 -56 -6 -63 -5 -73 14 -6 12 -7 20 -1 20 5 0 11 -5 13 -11 2 -7 13
-9 26 -5 12 4 20 12 17 17 -3 5 0 7 7 4 18 -7 130 64 122 77 -4 7 -2 8 4 4 16
-9 84 43 75 58 -3 6 -3 8 2 4 4 -4 17 -2 28 3 16 9 17 13 6 20 -12 8 -11 10 1
8 39 -4 56 6 122 74 100 102 250 306 300 409 l43 87 72 0 71 1 7 58 c3 31 5
76 4 100 -3 40 -4 42 -36 42 -38 0 -38 2 -19 85 15 66 35 233 39 337 2 48 -1
69 -10 72 -7 3 -13 12 -13 21 0 8 -8 15 -17 15 -16 0 -18 -12 -20 -93 -2 -131
-22 -173 -22 -49 -1 55 3 92 9 92 6 0 10 5 10 10 0 6 -13 10 -30 10 l-30 0 0
-120 c0 -113 1 -120 20 -120 13 0 20 -7 20 -20 0 -11 5 -20 10 -20 6 0 10 -9
10 -20 0 -11 4 -20 9 -20 5 0 11 -11 13 -25 5 -26 -6 -35 -16 -12 -3 6 -5 -7
-3 -30 1 -24 -1 -43 -5 -43 -5 0 -8 -9 -8 -20 0 -23 -6 -24 -40 -5 -14 8 -35
14 -47 15 -13 0 -23 4 -23 9 0 5 -11 11 -25 13 -35 7 -33 -20 3 -28 15 -3 36
-10 47 -15 15 -7 10 -8 -20 -4 -22 2 -51 5 -65 5 -20 0 -22 2 -10 11 11 8 7 9
-17 5 l-33 -5 5 47 4 47 -12 -47 c-7 -25 -15 -49 -18 -52 -6 -7 -141 33 -204
59 -54 23 -185 98 -185 107 0 4 97 106 215 226 167 170 220 219 235 215 11 -3
17 -9 14 -14 -3 -5 3 -6 12 -2 11 4 13 8 6 11 -20 6 -12 26 21 52 17 14 28 19
24 13 -13 -21 -2 -15 24 13 21 22 21 24 4 18 -11 -4 4 17 33 46 30 30 61 64
69 77 8 12 19 20 24 17 5 -3 9 -2 8 3 -4 25 4 47 26 68 13 14 28 25 32 25 4 0
31 -42 60 -93z m-2691 -144 c-7 -7 -26 7 -26 19 0 6 6 6 15 -2 9 -7 13 -15 11
-17z m594 -531 c-1 -21 -198 -117 -317 -153 -65 -20 -83 -19 -83 7 0 8 -4 14
-10 14 -5 0 -7 -7 -3 -16 4 -12 0 -15 -18 -12 -20 2 -25 10 -27 41 -2 26 2 45
13 57 13 15 15 31 9 95 -5 51 -10 72 -16 63 -6 -8 -7 3 -2 31 4 31 3 42 -5 37
-6 -4 -11 0 -11 9 0 9 5 13 10 10 6 -4 10 44 10 137 l1 143 224 -228 c124
-126 225 -232 225 -235z m-463 231 c-2 -16 -4 -5 -4 22 0 28 2 40 4 28 2 -13
2 -35 0 -50z m2447 -5 c6 -58 6 -157 -1 -120 -2 12 -9 22 -14 22 -5 0 -9 34
-9 75 0 86 14 100 24 23z m-1211 -119 c70 -71 127 -134 127 -138 0 -11 -192
-196 -314 -301 -60 -52 -128 -112 -150 -133 -96 -89 -265 -187 -414 -237 l-87
-30 -34 37 c-63 71 -125 157 -168 232 -24 42 -43 78 -43 82 0 3 28 12 63 19
98 21 224 67 325 122 l94 50 26 -24 c15 -12 21 -16 14 -7 -10 13 -8 18 12 27
35 16 167 142 164 157 -3 11 238 271 252 274 3 1 63 -58 133 -130z m-593 48
c0 -2 -10 -12 -21 -23 -22 -19 -22 -19 -8 4 12 19 29 30 29 19z m-650 -17 c0
-5 -11 -10 -25 -10 -14 0 -25 5 -25 10 0 6 11 10 25 10 14 0 25 -4 25 -10z
m-203 -122 c-3 -7 -5 -2 -5 12 0 14 2 19 5 13 2 -7 2 -19 0 -25z m230 -50 c-3
-8 -6 -5 -6 6 -1 11 2 17 5 13 3 -3 4 -12 1 -19z m-87 -138 c0 -5 -12 -10 -27
-10 -22 0 -25 2 -13 10 20 13 40 13 40 0z m63 3 c-7 -2 -19 -2 -25 0 -7 3 -2
5 12 5 14 0 19 -2 13 -5z m1659 -59 c78 -47 200 -97 310 -125 65 -18 88 -28
88 -40 0 -33 -191 -310 -232 -335 -29 -18 -267 91 -422 193 l-98 66 138 138
c76 77 143 139 148 139 4 0 35 -16 68 -36z m-310 -555 c65 -36 151 -79 193
-95 41 -16 75 -32 75 -37 0 -4 -16 -17 -35 -28 -39 -23 -40 -25 -23 -35 7 -4
8 -3 4 4 -4 7 3 14 18 18 13 3 27 12 30 20 7 19 33 18 33 -1 0 -11 -4 -12 -13
-4 -10 8 -15 5 -19 -14 -4 -15 -16 -28 -31 -31 -13 -4 -24 -13 -24 -21 0 -8
-8 -15 -17 -15 -15 0 -16 2 -3 10 13 8 12 10 -3 10 -10 0 -15 5 -12 10 4 6 11
7 17 4 6 -4 8 -2 4 4 -4 7 -34 -2 -85 -26 -74 -35 -78 -38 -65 -57 8 -11 14
-33 14 -49 0 -17 9 -36 22 -47 l21 -19 -21 0 c-13 0 -22 6 -22 15 0 8 -4 15
-10 15 -5 0 -10 -4 -10 -10 0 -5 -9 -10 -20 -10 -11 0 -20 4 -20 8 0 5 -21 9
-46 9 -25 0 -49 4 -52 10 -7 10 -36 13 -146 16 -35 1 -62 5 -60 8 2 3 -16 12
-39 18 -71 21 -239 91 -304 126 -33 18 -64 31 -69 27 -4 -4 -4 -2 -1 4 4 7 0
14 -8 18 -25 9 -17 21 23 35 82 29 283 132 376 194 l99 65 56 -41 c31 -23 109
-71 173 -108z m-815 -165 c-3 -3 -12 -4 -19 -1 -8 3 -5 6 6 6 11 1 17 -2 13
-5z m128 -24 c3 -5 1 -10 -4 -10 -6 0 -11 5 -11 10 0 6 2 10 4 10 3 0 8 -4 11
-10z m-285 -20 c0 -5 5 -9 11 -7 6 1 13 -6 14 -16 3 -17 1 -17 -18 -4 -24 16
-34 37 -18 37 6 0 11 -4 11 -10z m450 -60 c0 -5 -8 -10 -17 -10 -15 0 -16 2
-3 10 19 12 20 12 20 0z m590 6 c0 -3 -4 -8 -10 -11 -5 -3 -10 -1 -10 4 0 6 5
11 10 11 6 0 10 -2 10 -4z m-423 -92 c-3 -3 -12 -4 -19 -1 -8 3 -5 6 6 6 11 1
17 -2 13 -5z"/>
<path d="M5277 8003 c-10 -3 -16 -10 -14 -16 5 -16 38 -20 57 -7 13 9 13 11 0
20 -8 5 -17 9 -20 9 -3 -1 -13 -3 -23 -6z"/>
<path d="M4301 7730 c-9 -5 -4 -7 13 -7 29 0 32 2 13 10 -8 3 -20 2 -26 -3z"/>
<path d="M4360 7700 c0 -20 28 -26 98 -22 15 0 22 -5 22 -17 0 -10 9 -21 20
-24 11 -3 20 -11 20 -17 0 -7 -7 -10 -15 -7 -17 7 -30 -9 -15 -18 5 -3 21 5
35 19 14 14 25 22 25 19 0 -3 9 2 21 13 19 17 19 19 2 25 -10 4 -34 8 -53 8
-28 1 -32 4 -20 12 11 8 4 9 -29 4 -35 -4 -42 -3 -33 7 8 10 1 13 -34 15 -38
2 -44 -1 -44 -17z"/>
<path d="M4260 7695 c-10 -12 -10 -15 2 -15 8 0 15 7 15 15 0 8 -1 15 -2 15
-2 0 -8 -7 -15 -15z"/>
<path d="M4177 7621 c-50 -52 -56 -64 -32 -55 8 4 15 12 15 19 0 7 19 29 41
49 23 20 37 36 32 36 -5 0 -31 -22 -56 -49z"/>
<path d="M5990 7656 c0 -2 8 -10 18 -17 15 -13 16 -12 3 4 -13 16 -21 21 -21
13z"/>
<path d="M4418 7643 c7 -3 16 -2 19 1 4 3 -2 6 -13 5 -11 0 -14 -3 -6 -6z"/>
<path d="M4220 7630 c-13 -8 -12 -10 3 -10 9 0 17 5 17 10 0 12 -1 12 -20 0z"/>
<path d="M4410 7615 c0 -8 7 -15 15 -15 8 0 15 7 15 15 0 8 -7 15 -15 15 -8 0
-15 -7 -15 -15z"/>
<path d="M4240 7575 c0 -8 2 -15 4 -15 2 0 11 -3 20 -6 12 -4 16 0 16 15 0 14
-6 21 -20 21 -11 0 -20 -7 -20 -15z"/>
<path d="M4450 7559 c0 -5 5 -7 10 -4 6 3 10 8 10 11 0 2 -4 4 -10 4 -5 0 -10
-5 -10 -11z"/>
<path d="M4403 7554 c-7 -3 -10 -11 -7 -18 8 -21 -24 -28 -35 -8 -10 16 -10
16 -11 0 0 -32 32 -38 63 -13 39 34 33 56 -10 39z"/>
<path d="M4049 7463 c-13 -16 -12 -17 4 -4 9 7 17 15 17 17 0 8 -8 3 -21 -13z"/>
<path d="M4026 7432 c-2 -4 -1 -14 4 -22 7 -11 9 -9 7 8 -1 24 -3 26 -11 14z"/>
<path d="M4284 7409 l0 -31 18 24 c9 12 18 27 18 32 0 6 -7 1 -15 -10 -13 -16
-14 -16 -9 -1 3 9 2 17 -3 17 -5 0 -9 -14 -9 -31z"/>
<path d="M4250 7350 c-8 -5 -12 -12 -9 -15 4 -3 12 1 19 10 14 17 11 19 -10 5z"/>
<path d="M3923 7272 c-21 -37 -54 -107 -74 -157 -58 -144 -59 -131 13 -139 35
-3 92 -13 128 -20 36 -8 66 -13 68 -11 2 2 16 39 32 82 32 90 68 165 116 240
25 39 29 50 16 48 -9 -2 -27 -4 -39 -4 -13 -1 -23 -7 -23 -15 0 -11 -20 -15
-86 -18 -47 -2 -88 1 -91 5 -2 4 -14 5 -26 2 -15 -4 -18 -3 -9 3 8 5 13 13 12
18 -1 4 6 11 16 14 16 6 16 7 1 13 -13 5 -25 -10 -54 -61z m261 -27 c-4 -8 -8
-15 -10 -15 -2 0 -4 7 -4 15 0 8 4 15 10 15 5 0 7 -7 4 -15z m-267 -37 c-3 -8
-6 -5 -6 6 -1 11 2 17 5 13 3 -3 4 -12 1 -19z"/>
<path d="M3990 7310 c-9 -6 -10 -10 -3 -10 6 0 15 5 18 10 8 12 4 12 -15 0z"/>
<path d="M3568 7183 c6 -2 18 -2 25 0 6 3 1 5 -13 5 -14 0 -19 -2 -12 -5z"/>
<path d="M6321 7174 c0 -11 3 -14 6 -6 3 7 2 16 -1 19 -3 4 -6 -2 -5 -13z"/>
<path d="M6120 7170 c-24 -8 -23 -8 8 -9 17 -1 32 4 32 9 0 11 -5 11 -40 0z"/>
<path d="M6095 7119 c-4 -5 -4 -13 -1 -16 3 -4 6 0 7 8 0 8 4 6 9 -6 7 -16 9
-17 9 -3 1 21 -15 32 -24 17z"/>
<path d="M6112 7048 c6 -18 17 -45 24 -59 7 -14 11 -29 7 -33 -9 -9 7 -8 94 9
43 8 97 15 121 15 46 0 52 10 22 40 -13 13 -33 20 -60 20 -29 0 -40 4 -40 15
0 8 -9 15 -20 15 -11 0 -20 -7 -20 -15 0 -24 -72 -20 -90 5 -8 11 -22 20 -31
20 -15 0 -16 -4 -7 -32z"/>
<path d="M6361 7064 c0 -11 3 -14 6 -6 3 7 2 16 -1 19 -3 4 -6 -2 -5 -13z"/>
<path d="M3558 6983 c6 -2 18 -2 25 0 6 3 1 5 -13 5 -14 0 -19 -2 -12 -5z"/>
<path d="M4339 6613 c-13 -16 -12 -17 4 -4 9 7 17 15 17 17 0 8 -8 3 -21 -13z"/>
<path d="M4255 6530 c-17 -18 -17 -20 -1 -20 9 0 19 7 23 15 9 25 -2 27 -22 5z"/>
<path d="M4521 6464 c0 -11 3 -14 6 -6 3 7 2 16 -1 19 -3 4 -6 -2 -5 -13z"/>
<path d="M5765 6362 c38 -39 70 -72 70 -72 0 0 1 9 1 20 0 13 -7 20 -18 20
-10 0 -27 14 -37 31 -10 17 -21 29 -24 27 -3 -2 -18 8 -34 22 -15 13 3 -8 42
-48z"/>
<path d="M6063 6402 c15 -16 25 -31 22 -34 -3 -2 2 -5 10 -5 11 0 5 11 -17 34
-17 18 -34 33 -37 33 -3 0 7 -13 22 -28z"/>
<path d="M6105 6340 c3 -5 10 -10 16 -10 5 0 9 5 9 10 0 6 -7 10 -16 10 -8 0
-12 -4 -9 -10z"/>
<path d="M3938 2973 c23 -2 61 -2 85 0 23 2 4 4 -43 4 -47 0 -66 -2 -42 -4z"/>
<path d="M4028 2833 c7 -3 16 -2 19 1 4 3 -2 6 -13 5 -11 0 -14 -3 -6 -6z"/>
<path d="M3993 2813 c9 -2 23 -2 30 0 6 3 -1 5 -18 5 -16 0 -22 -2 -12 -5z"/>
<path d="M6442 4420 c0 -14 2 -19 5 -12 2 6 2 18 0 25 -3 6 -5 1 -5 -13z"/>
<path d="M6448 4320 c2 -22 6 -40 8 -40 2 0 4 18 4 40 0 22 -3 40 -8 40 -4 0
-6 -18 -4 -40z"/>
<path d="M6194 3985 c0 -55 1 -76 3 -47 2 29 2 74 0 100 -2 26 -3 2 -3 -53z"/>
<path d="M6240 3991 c0 -5 6 -12 13 -15 10 -5 10 -7 0 -12 -7 -3 -13 -14 -13
-25 0 -16 7 -19 40 -19 l40 0 0 40 0 40 -40 0 c-22 0 -40 -4 -40 -9z"/>
<path d="M6181 3854 c0 -16 4 -38 9 -49 6 -13 7 -5 3 25 -7 53 -13 66 -12 24z"/>
<path d="M6246 3818 c-3 -13 -6 -49 -6 -80 0 -51 2 -58 20 -58 17 0 20 7 20
40 0 33 3 40 20 40 17 0 20 7 20 40 0 39 -1 40 -34 40 -26 0 -35 -5 -40 -22z"/>
<path d="M6172 3775 c0 -16 2 -22 5 -12 2 9 2 23 0 30 -3 6 -5 -1 -5 -18z"/>
<path d="M6538 3393 c12 -2 30 -2 40 0 9 3 -1 5 -23 4 -22 0 -30 -2 -17 -4z"/>
<path d="M6373 2983 c9 -2 23 -2 30 0 6 3 -1 5 -18 5 -16 0 -22 -2 -12 -5z"/>
<path d="M6208 2973 c12 -2 30 -2 40 0 9 3 -1 5 -23 4 -22 0 -30 -2 -17 -4z"/>
<path d="M5938 2813 c7 -3 16 -2 19 1 4 3 -2 6 -13 5 -11 0 -14 -3 -6 -6z"/>
<path d="M6153 2813 c15 -2 39 -2 55 0 15 2 2 4 -28 4 -30 0 -43 -2 -27 -4z"/>
<path d="M4020 3668 c0 -30 1 -31 15 -12 19 25 19 44 0 44 -10 0 -15 -10 -15
-32z"/>
<path d="M4710 3525 c13 -14 26 -25 28 -25 3 0 -5 11 -18 25 -13 14 -26 25
-28 25 -3 0 5 -11 18 -25z"/>
<path d="M5302 2723 c-57 -20 -48 -27 11 -9 25 7 49 11 53 7 4 -3 4 0 0 7 -8
14 -8 14 -64 -5z"/>
<path d="M5185 2685 c-22 -8 -35 -14 -28 -14 6 -1 19 -4 29 -8 13 -5 15 -3 9
7 -6 10 -3 12 13 8 14 -4 20 -2 15 5 -4 6 0 8 10 4 10 -3 17 -2 17 3 0 13 -15
11 -65 -5z"/>
<path d="M3294 7584 c-18 -14 -18 -15 4 -4 12 6 22 13 22 15 0 8 -5 6 -26 -11z"/>
<path d="M3139 7463 c-13 -16 -12 -17 4 -4 9 7 17 15 17 17 0 8 -8 3 -21 -13z"/>
<path d="M3023 7358 c-15 -20 -25 -38 -20 -38 3 0 12 11 21 25 17 26 16 35 -1
13z"/>
<path d="M3205 7309 c-11 -17 1 -21 15 -4 8 9 8 15 2 15 -6 0 -14 -5 -17 -11z"/>
<path d="M2940 7265 c-13 -14 -21 -25 -17 -25 3 0 17 11 31 25 14 14 22 25 17
25 -4 0 -18 -11 -31 -25z"/>
<path d="M3160 7269 c0 -5 5 -7 10 -4 6 3 10 8 10 11 0 2 -4 4 -10 4 -5 0 -10
-5 -10 -11z"/>
<path d="M3073 7243 c-7 -2 -13 -13 -13 -24 0 -11 -7 -19 -16 -19 -26 0 -46
-28 -42 -59 4 -28 3 -28 -26 -20 -17 5 -43 7 -58 3 -36 -7 -66 19 -48 41 7 8
10 15 7 15 -8 0 -130 -176 -151 -218 -9 -18 -14 -38 -10 -44 4 -6 3 -8 -4 -5
-12 8 -66 -135 -87 -228 -18 -81 -25 -212 -17 -315 l7 -85 41 65 c23 36 71
106 108 155 37 50 71 108 77 130 22 88 73 233 110 309 21 44 35 84 32 90 -3 5
-1 6 5 2 12 -7 16 3 13 39 -2 15 0 17 7 6 7 -10 18 -2 43 35 18 27 50 67 70
89 l37 40 -37 1 c-20 1 -42 0 -48 -3z m-15 -60 c-10 -2 -18 -9 -18 -15 0 -6
-3 -9 -6 -5 -10 10 6 27 24 26 15 -1 15 -2 0 -6z m-198 -53 c0 -5 -5 -10 -11
-10 -5 0 -7 5 -4 10 3 6 8 10 11 10 2 0 4 -4 4 -10z m-49 -94 c-12 -12 -19
-26 -16 -29 3 -4 2 -5 -1 -2 -4 2 -15 0 -26 -6 -19 -10 -19 -10 -3 15 10 14
22 23 28 19 6 -4 8 0 4 10 -3 10 -2 17 3 17 6 0 10 8 10 18 1 16 1 16 11 -1 9
-15 6 -23 -10 -41z"/>
<path d="M2900 7215 c-11 -13 -10 -14 4 -9 9 3 16 10 16 15 0 13 -6 11 -20 -6z"/>
<path d="M2920 7170 c0 -5 9 -10 20 -10 11 0 20 5 20 10 0 6 -9 10 -20 10 -11
0 -20 -4 -20 -10z"/>
<path d="M2272 5765 c0 -16 2 -22 5 -12 2 9 2 23 0 30 -3 6 -5 -1 -5 -18z"/>
<path d="M7688 5293 c6 -2 18 -2 25 0 6 3 1 5 -13 5 -14 0 -19 -2 -12 -5z"/>
<path d="M7768 5293 c6 -2 18 -2 25 0 6 3 1 5 -13 5 -14 0 -19 -2 -12 -5z"/>
<path d="M7637 5245 c7 -46 13 -65 24 -65 5 0 9 6 9 14 0 8 3 22 6 31 5 11 0
18 -14 22 -12 3 -23 10 -25 17 -2 6 -2 -2 0 -19z"/>
<path d="M7841 5234 c0 -11 3 -14 6 -6 3 7 2 16 -1 19 -3 4 -6 -2 -5 -13z"/>
<path d="M7760 5220 c0 -16 -7 -20 -37 -20 -32 0 -40 -5 -51 -28 -8 -17 -9
-28 -2 -30 6 -2 8 -7 5 -12 -2 -4 2 -32 9 -61 8 -30 17 -75 20 -101 4 -27 10
-48 14 -48 14 0 89 124 116 189 14 35 28 80 31 100 4 34 4 33 -8 -7 -11 -39
-29 -61 -49 -62 -17 0 -7 18 12 23 20 5 29 37 10 37 -5 0 -10 9 -10 20 0 16
-7 20 -30 20 -23 0 -30 -4 -30 -20z"/>
<path d="M7312 4815 l-92 -106 14 -32 c8 -18 31 -74 52 -124 20 -51 40 -93 44
-93 8 0 151 145 180 182 l21 28 -28 62 c-15 35 -44 91 -63 126 l-37 62 -91
-105z"/>
</g>
</svg>
